<mxfile host="app.diagrams.net" modified="2023-03-03T08:18:09.146Z" agent="5.0 (Macintosh; Intel Mac OS X 10_15_7) AppleWebKit/605.1.15 (KHTML, like Gecko) Version/16.3 Safari/605.1.15" etag="1CAgVQd8L1ZVZz_SKrCA" version="20.8.20" type="github">
  <diagram name="Страница 1" id="CG2j4MpKMs1qNah9ucWb">
    <mxGraphModel dx="1242" dy="827" grid="1" gridSize="10" guides="1" tooltips="1" connect="1" arrows="1" fold="1" page="1" pageScale="1" pageWidth="827" pageHeight="1169" math="0" shadow="0">
      <root>
        <mxCell id="0" />
        <mxCell id="1" parent="0" />
        <mxCell id="WQrkqJvyht-zCSSFWJbm-3" value="" style="edgeStyle=orthogonalEdgeStyle;rounded=0;orthogonalLoop=1;jettySize=auto;html=1;fontSize=24;" edge="1" parent="1" source="WQrkqJvyht-zCSSFWJbm-1" target="WQrkqJvyht-zCSSFWJbm-2">
          <mxGeometry relative="1" as="geometry" />
        </mxCell>
        <mxCell id="WQrkqJvyht-zCSSFWJbm-1" value="&lt;font style=&quot;font-size: 24px;&quot;&gt;Начало&lt;/font&gt;" style="ellipse;whiteSpace=wrap;html=1;" vertex="1" parent="1">
          <mxGeometry x="330" y="10" width="190" height="100" as="geometry" />
        </mxCell>
        <mxCell id="WQrkqJvyht-zCSSFWJbm-5" value="" style="edgeStyle=orthogonalEdgeStyle;rounded=0;orthogonalLoop=1;jettySize=auto;html=1;fontSize=24;" edge="1" parent="1" source="WQrkqJvyht-zCSSFWJbm-2" target="WQrkqJvyht-zCSSFWJbm-4">
          <mxGeometry relative="1" as="geometry" />
        </mxCell>
        <mxCell id="WQrkqJvyht-zCSSFWJbm-2" value="Ввод&lt;br&gt;N&lt;br&gt;A" style="shape=parallelogram;perimeter=parallelogramPerimeter;whiteSpace=wrap;html=1;fixedSize=1;fontSize=24;" vertex="1" parent="1">
          <mxGeometry x="330" y="140" width="190" height="80" as="geometry" />
        </mxCell>
        <mxCell id="WQrkqJvyht-zCSSFWJbm-7" value="" style="edgeStyle=orthogonalEdgeStyle;rounded=0;orthogonalLoop=1;jettySize=auto;html=1;fontSize=24;" edge="1" parent="1" source="WQrkqJvyht-zCSSFWJbm-4" target="WQrkqJvyht-zCSSFWJbm-6">
          <mxGeometry relative="1" as="geometry" />
        </mxCell>
        <mxCell id="WQrkqJvyht-zCSSFWJbm-4" value="i = 0&lt;br&gt;sum = 0" style="whiteSpace=wrap;html=1;fontSize=24;" vertex="1" parent="1">
          <mxGeometry x="330" y="260" width="190" height="80" as="geometry" />
        </mxCell>
        <mxCell id="WQrkqJvyht-zCSSFWJbm-10" value="" style="edgeStyle=orthogonalEdgeStyle;rounded=0;orthogonalLoop=1;jettySize=auto;html=1;fontSize=24;" edge="1" parent="1" source="WQrkqJvyht-zCSSFWJbm-6" target="WQrkqJvyht-zCSSFWJbm-8">
          <mxGeometry relative="1" as="geometry" />
        </mxCell>
        <mxCell id="WQrkqJvyht-zCSSFWJbm-14" value="" style="edgeStyle=orthogonalEdgeStyle;rounded=0;orthogonalLoop=1;jettySize=auto;html=1;fontSize=24;" edge="1" parent="1" source="WQrkqJvyht-zCSSFWJbm-6" target="WQrkqJvyht-zCSSFWJbm-13">
          <mxGeometry relative="1" as="geometry" />
        </mxCell>
        <mxCell id="WQrkqJvyht-zCSSFWJbm-6" value="i &amp;lt; N" style="rhombus;whiteSpace=wrap;html=1;fontSize=24;" vertex="1" parent="1">
          <mxGeometry x="330" y="390" width="190" height="100" as="geometry" />
        </mxCell>
        <mxCell id="WQrkqJvyht-zCSSFWJbm-12" value="" style="edgeStyle=orthogonalEdgeStyle;rounded=0;orthogonalLoop=1;jettySize=auto;html=1;fontSize=24;" edge="1" parent="1" source="WQrkqJvyht-zCSSFWJbm-8" target="WQrkqJvyht-zCSSFWJbm-11">
          <mxGeometry relative="1" as="geometry" />
        </mxCell>
        <mxCell id="WQrkqJvyht-zCSSFWJbm-8" value="sum = sum + A[i]" style="whiteSpace=wrap;html=1;fontSize=24;" vertex="1" parent="1">
          <mxGeometry x="330" y="525" width="190" height="65" as="geometry" />
        </mxCell>
        <mxCell id="WQrkqJvyht-zCSSFWJbm-20" style="edgeStyle=orthogonalEdgeStyle;rounded=0;orthogonalLoop=1;jettySize=auto;html=1;fontSize=24;" edge="1" parent="1" source="WQrkqJvyht-zCSSFWJbm-11" target="WQrkqJvyht-zCSSFWJbm-6">
          <mxGeometry relative="1" as="geometry">
            <Array as="points">
              <mxPoint x="250" y="660" />
              <mxPoint x="250" y="440" />
            </Array>
          </mxGeometry>
        </mxCell>
        <mxCell id="WQrkqJvyht-zCSSFWJbm-11" value="i = i + 1&amp;nbsp;" style="whiteSpace=wrap;html=1;fontSize=24;" vertex="1" parent="1">
          <mxGeometry x="330" y="630" width="190" height="60" as="geometry" />
        </mxCell>
        <mxCell id="WQrkqJvyht-zCSSFWJbm-19" value="" style="edgeStyle=orthogonalEdgeStyle;rounded=0;orthogonalLoop=1;jettySize=auto;html=1;fontSize=24;" edge="1" parent="1" source="WQrkqJvyht-zCSSFWJbm-13" target="WQrkqJvyht-zCSSFWJbm-18">
          <mxGeometry relative="1" as="geometry" />
        </mxCell>
        <mxCell id="WQrkqJvyht-zCSSFWJbm-13" value="avr = sum / N" style="whiteSpace=wrap;html=1;fontSize=24;" vertex="1" parent="1">
          <mxGeometry x="600" y="390" width="170" height="100" as="geometry" />
        </mxCell>
        <mxCell id="WQrkqJvyht-zCSSFWJbm-15" value="нет" style="text;html=1;align=center;verticalAlign=middle;resizable=0;points=[];autosize=1;strokeColor=none;fillColor=none;fontSize=24;" vertex="1" parent="1">
          <mxGeometry x="520" y="400" width="60" height="40" as="geometry" />
        </mxCell>
        <mxCell id="WQrkqJvyht-zCSSFWJbm-16" value="да" style="text;html=1;align=center;verticalAlign=middle;resizable=0;points=[];autosize=1;strokeColor=none;fillColor=none;fontSize=24;" vertex="1" parent="1">
          <mxGeometry x="445" y="480" width="50" height="40" as="geometry" />
        </mxCell>
        <mxCell id="WQrkqJvyht-zCSSFWJbm-18" value="Вывод avr" style="shape=document;whiteSpace=wrap;html=1;boundedLbl=1;fontSize=24;" vertex="1" parent="1">
          <mxGeometry x="840" y="390" width="130" height="100" as="geometry" />
        </mxCell>
      </root>
    </mxGraphModel>
  </diagram>
</mxfile>
